<svg width="37" height="46" viewBox="0 0 37 46" fill="none" xmlns="http://www.w3.org/2000/svg">
<path d="M20.8125 16.1H33.5312L20.8125 3.45V16.1ZM4.625 0H23.125L37 13.8V41.4C37 42.62 36.5127 43.79 35.6454 44.6527C34.778 45.5154 33.6016 46 32.375 46H4.625C2.05813 46 0 43.93 0 41.4V4.6C0 2.047 2.05813 0 4.625 0ZM4.9025 31.05L13.5512 39.652L16.835 36.409L11.4469 31.05L16.835 25.691L13.5512 22.448L4.9025 31.05ZM30.71 31.05L22.0613 22.448L18.7775 25.691L24.1656 31.05L18.7775 36.409L22.0613 39.652L30.71 31.05Z" fill="#27272A"/>
</svg>
