<svg width="48" height="48" viewBox="0 0 48 48" fill="none" xmlns="http://www.w3.org/2000/svg">
<g clip-path="url(#clip0_1763_19890)">
<path d="M43.6447 36.7151C44.2049 35.2956 45.4552 32.1249 44.8621 31.3544C44.2706 30.5856 40.9472 30.9881 39.4554 31.1721C39.0037 31.2246 38.933 30.8238 39.3421 30.533C41.9904 28.6454 46.3341 29.1891 46.8384 29.8233C47.3494 30.4607 46.7054 34.8816 44.2197 36.9911C43.8386 37.3147 43.4739 37.1455 43.6447 36.7151Z" fill="#FF9900"/>
<path d="M42.7323 33.473C43.5998 33.11 44.3292 34.0349 43.4782 34.6559C38.3344 38.3901 30.8742 40.3747 24.4506 40.3747C15.4511 40.3747 7.3419 37.1005 1.20912 31.6528C0.726122 31.2273 1.15491 30.6408 1.73319 30.9726C8.35228 34.761 16.5403 37.043 24.9895 37.043C30.6951 37.043 36.961 35.8782 42.7323 33.473Z" fill="#FF9900"/>
<path fill-rule="evenodd" clip-rule="evenodd" d="M39.9552 26.0884C39.137 26.0884 38.337 26.0013 37.5582 25.8239C36.7762 25.6448 36.1782 25.4427 35.7626 25.2111C35.508 25.0731 35.3486 24.9285 35.2845 24.7872C35.2221 24.6426 35.1892 24.5014 35.1892 24.3601V23.5896C35.1892 23.2709 35.3092 23.1082 35.5441 23.1082C35.6345 23.1082 35.7297 23.1296 35.8283 23.1624C35.9285 23.2002 36.06 23.2528 36.2242 23.3234C36.75 23.5551 37.32 23.7309 37.9394 23.8557C38.5571 23.9789 39.1732 24.0414 39.7892 24.0414C40.77 24.0414 41.5274 23.8738 42.063 23.5354C42.6002 23.2002 42.8663 22.7221 42.8663 22.1011C42.8663 21.674 42.7267 21.3208 42.4441 21.0349C42.1632 20.7491 41.6407 20.4879 40.8801 20.2381L38.6212 19.5465C37.4761 19.1916 36.6465 18.6774 36.129 18.0055C35.6115 17.3286 35.3535 16.5943 35.3535 15.7926C35.3535 15.1568 35.4932 14.5949 35.7774 14.1054C36.0567 13.6174 36.4263 13.2018 36.888 12.8551C37.3562 12.5101 37.8967 12.2506 38.5127 12.0699C39.1272 11.8941 39.781 11.8037 40.471 11.8037C40.816 11.8037 41.166 11.8267 41.5225 11.8711C41.8757 11.9138 42.2108 11.9729 42.5279 12.0436C42.845 12.1175 43.1407 12.1964 43.4117 12.2834C43.6845 12.3738 43.9013 12.4625 44.0672 12.5496C44.2825 12.6728 44.4352 12.7976 44.5289 12.9225C44.6192 13.0457 44.6652 13.2133 44.6652 13.4285V14.1448C44.6652 14.4651 44.547 14.6229 44.3087 14.6229C44.1822 14.6229 43.9851 14.5637 43.7107 14.4389C42.8236 14.0462 41.8215 13.854 40.7191 13.854C39.8287 13.854 39.137 13.9953 38.6475 14.2779C38.1562 14.5637 37.9115 15.0155 37.9115 15.6365C37.9115 16.0604 38.0659 16.4201 38.3764 16.7126C38.6852 17.005 39.2553 17.2843 40.0915 17.5521L42.2962 18.2454C43.4216 18.5969 44.225 19.0865 44.7047 19.7042C45.1877 20.3269 45.4292 21.0349 45.4292 21.8317C45.4292 22.4905 45.2928 23.0803 45.0185 23.6027C44.7457 24.1268 44.3695 24.572 43.8865 24.9449C43.4068 25.3179 42.8318 25.6004 42.1599 25.7959C41.4863 25.9931 40.752 26.0884 39.9552 26.0884ZM19.9698 25.6875C19.6971 25.6875 19.4983 25.6431 19.3702 25.5446C19.242 25.4444 19.1336 25.2472 19.0432 24.9449L15.3928 13.187C15.3057 12.8847 15.2581 12.6826 15.2581 12.5775C15.2581 12.3294 15.3862 12.2046 15.6409 12.2046H17.1638C17.4546 12.2046 17.6583 12.2539 17.7782 12.3524C17.8949 12.4477 17.9984 12.6449 18.0887 12.9504L20.7025 23.0047L23.129 12.9504C23.2013 12.6449 23.2999 12.4477 23.4264 12.3524C23.5529 12.2539 23.7615 12.2046 24.0507 12.2046H25.3075C25.595 12.2046 25.8036 12.2539 25.9317 12.3524C26.0582 12.4477 26.1585 12.6449 26.2307 12.9504L28.6835 23.1378L31.3778 12.9504C31.4682 12.6449 31.5717 12.4477 31.69 12.3524C31.8099 12.2539 32.012 12.2046 32.3027 12.2046H33.7452C34.0015 12.2046 34.128 12.3294 34.128 12.5775C34.128 12.6449 34.1165 12.727 34.1017 12.8141C34.0803 12.9061 34.0475 13.0293 33.99 13.187L30.2344 24.9449C30.144 25.2472 30.034 25.4444 29.9058 25.5446C29.7793 25.6431 29.5789 25.6875 29.3078 25.6875H27.9722C27.683 25.6875 27.4744 25.6382 27.3479 25.5331C27.2214 25.4263 27.1212 25.2193 27.0489 24.9203L24.624 15.1289L22.2304 24.9203C22.1581 25.2193 22.0562 25.4263 21.9297 25.5331C21.8016 25.6382 21.5946 25.6875 21.3038 25.6875H19.9698ZM7.47096 24.0414C7.98189 24.0414 8.51581 23.9477 9.07931 23.7621C9.64117 23.5748 10.1307 23.2528 10.548 22.7895C10.8043 22.5069 10.9785 22.1833 11.0803 21.8186C11.1789 21.4571 11.2265 21.0185 11.2265 20.5026V19.8652C10.7764 19.7584 10.3 19.6746 9.79889 19.6122C9.29946 19.5514 8.81481 19.5186 8.34167 19.5186C7.30831 19.5186 6.53453 19.7223 6.02853 20.1314C5.52089 20.5388 5.2646 21.122 5.2646 21.8892C5.2646 22.5973 5.45681 23.1312 5.83796 23.4959C6.2191 23.8606 6.76453 24.0414 7.47096 24.0414ZM13.7894 21.7282C13.7894 22.295 13.8469 22.7451 13.9652 23.0836C14.0851 23.422 14.2527 23.7867 14.4695 24.1744C14.5418 24.2993 14.578 24.4143 14.578 24.5178C14.578 24.6804 14.4777 24.8316 14.279 24.9712L13.2982 25.6119C13.1536 25.699 13.0172 25.745 12.8907 25.745C12.7248 25.745 12.572 25.6744 12.4275 25.5331C12.2073 25.3179 12.0233 25.0846 11.8705 24.8266C11.7128 24.5704 11.5551 24.2697 11.3925 23.9329C10.1751 25.3343 8.65217 26.0358 6.81874 26.0358C5.51103 26.0358 4.47603 25.6744 3.7121 24.9449C2.95146 24.2188 2.57031 23.2429 2.57031 22.0206C2.57031 20.7277 3.04181 19.6829 3.9881 18.8943C4.92946 18.1057 6.20267 17.7098 7.79789 17.7098C8.32524 17.7098 8.87396 17.7509 9.44567 17.8297C10.0157 17.9086 10.6121 18.0219 11.2265 18.1632V17.0477C11.2265 15.8944 10.985 15.0829 10.4938 14.6114C10.0042 14.1415 9.16146 13.9082 7.96381 13.9082C7.41674 13.9082 6.85817 13.9723 6.28646 14.1054C5.71639 14.2384 5.15617 14.4109 4.61239 14.6229C4.35774 14.7296 4.17539 14.797 4.0686 14.8233C3.96017 14.8496 3.87803 14.8627 3.82381 14.8627C3.60696 14.8627 3.49524 14.705 3.49524 14.383V13.6404C3.49524 13.3907 3.53467 13.2133 3.60696 13.1098C3.67924 13.0014 3.82381 12.8946 4.04231 12.7894C4.5861 12.5216 5.23996 12.2916 6.0006 12.0978C6.76453 11.9023 7.57117 11.8037 8.42546 11.8037C10.2753 11.8037 11.6323 12.2194 12.4948 13.0408C13.3557 13.8655 13.7894 15.1108 13.7894 16.7783V21.7282Z" fill="#232F3E"/>
</g>
<defs>
<clipPath id="clip0_1763_19890">
<rect width="46" height="39.7273" fill="white" transform="translate(1 4.13672)"/>
</clipPath>
</defs>
</svg>
