<svg width="48" height="48" viewBox="0 0 48 48" fill="none" xmlns="http://www.w3.org/2000/svg">
<path d="M38.1253 33.6404L34.3007 31.1178L31.1103 36.4471L27.3996 35.3621L24.1323 40.349L24.2997 41.9187L42.0641 38.6456L41.0323 27.5461L38.1253 33.6404ZM21.5586 28.855L24.4088 28.4632C24.8699 28.6704 25.1909 28.7493 25.7439 28.8899C26.605 29.1143 27.602 29.3296 29.0782 28.5855C29.4218 28.4153 30.1375 27.761 30.4268 27.3878L42.1044 25.2694L43.2957 39.687L23.2899 43.2925L21.5586 28.855ZM43.2506 23.6599L42.0979 23.8795L39.8834 1L2.15039 5.37532L6.79898 43.0987L11.2156 42.4577C10.8629 41.9541 10.3137 41.3449 9.37585 40.5648C8.07506 39.4841 8.53514 37.6487 9.30231 36.4896C10.3175 34.5311 15.548 32.0423 15.2516 28.9119C15.1454 27.7738 14.9645 26.2921 13.908 25.277C13.8682 25.6983 13.9396 26.1042 13.9396 26.1042C13.9396 26.1042 13.5058 25.5507 13.2895 24.7959C13.0747 24.5066 12.9062 24.4142 12.6781 24.0276C12.5153 24.4748 12.5368 24.9935 12.5368 24.9935C12.5368 24.9935 12.182 24.1549 12.1245 23.4473C11.9141 23.764 11.8609 24.3658 11.8609 24.3658C11.8609 24.3658 11.3998 23.0441 11.505 22.3323C11.2946 21.7128 10.6707 20.4834 10.8474 17.689C11.9989 18.496 14.5339 18.3043 15.5217 16.8484C15.8498 16.3663 16.0741 15.0499 15.358 12.4564C14.8979 10.7932 13.7587 8.31673 13.3147 7.37724L13.2616 7.41536C13.4956 8.17232 13.9783 9.75925 14.1635 10.5286C14.7239 12.8622 14.8742 13.6745 14.6112 14.7503C14.3873 15.6855 13.8505 16.2975 12.4896 16.9816C11.1287 17.6676 9.32271 15.998 9.20835 15.9056C7.8861 14.8523 6.8634 13.1339 6.74904 12.2991C6.6304 11.3854 7.2757 10.8367 7.60103 10.0894C7.13558 10.2226 6.61645 10.4588 6.61645 10.4588C6.61645 10.4588 7.23597 9.81776 7.99991 9.2632C8.31612 9.05383 8.50186 8.92068 8.83525 8.64367C8.35262 8.63562 7.96072 8.64958 7.96072 8.64958C7.96072 8.64958 8.76546 8.21473 9.59972 7.89799C8.98933 7.87115 8.40523 7.8937 8.40523 7.8937C8.40523 7.8937 10.201 7.09056 11.6194 6.50111C12.5948 6.10115 13.5477 6.21926 14.0829 6.9934C14.7857 8.0075 15.5239 8.55832 17.0882 8.89975C18.0487 8.47402 18.3407 8.25499 19.5476 7.92644C20.61 6.75826 21.4443 6.60686 21.4443 6.60686C21.4443 6.60686 21.0303 6.98642 20.9198 7.58285C21.5221 7.10828 22.1825 6.71208 22.1825 6.71208C22.1825 6.71208 21.9268 7.02776 21.6885 7.52917L21.7439 7.6113C22.4465 7.18989 23.2728 6.85757 23.2728 6.85757C23.2728 6.85757 23.0366 7.15606 22.7595 7.54259C23.2893 7.5383 24.3641 7.56514 24.7814 7.61238C27.2439 7.66661 27.7549 4.98236 28.6997 4.64575C29.883 4.22324 30.4118 3.96771 32.4282 5.94815C34.1585 7.64836 35.5103 10.6918 34.8391 11.3736C34.2766 11.9394 33.1663 11.1529 31.936 9.61913C31.2858 8.80688 30.794 7.84698 30.5637 6.62673C30.3694 5.59704 29.613 4.99954 29.613 4.99954C29.613 4.99954 30.0521 5.97553 30.0521 6.83771C30.0521 7.30853 30.1111 9.06886 30.866 10.0567C30.7914 10.2011 30.7564 10.7712 30.6737 10.8802C29.7955 9.81883 27.9096 9.0592 27.602 8.83533C28.6428 9.68839 31.0356 11.6479 31.9547 13.5258C32.8239 15.3017 32.3117 16.9295 32.7514 17.3508C32.8764 17.4717 34.6206 19.6448 34.9562 20.7368C35.5414 22.6399 34.9912 24.6396 34.225 25.8804L32.0857 26.2137C31.7727 26.1267 31.5618 26.0832 31.2809 25.9206C31.4356 25.6468 31.7432 24.9639 31.7464 24.8233L31.6256 24.6112C30.96 25.5545 29.8443 26.4703 28.9178 26.9964C27.705 27.6836 26.3071 27.5779 25.3971 27.296C22.8143 26.4993 20.3721 24.7541 19.7832 24.2955C19.7832 24.2955 19.7649 24.6617 19.8761 24.7438C20.5273 25.4782 22.0192 26.8069 23.4612 27.733L20.3872 28.0712L21.8405 39.3869C21.1962 39.4792 21.0958 39.5243 20.3904 39.6247C19.7687 37.4286 18.5796 35.9946 17.2799 35.1593C16.1337 34.4227 14.5527 34.2568 13.0393 34.5563L12.9421 34.6691C13.9944 34.5595 15.2367 34.712 16.5127 35.52C17.7652 36.3119 18.7744 38.3573 19.146 39.5888C19.6217 41.1628 19.9508 42.8464 18.6704 44.6309C17.7593 45.8994 15.0997 46.6006 12.9513 45.084C13.5252 46.0069 14.3009 46.7616 15.3451 46.9039C16.8955 47.1143 18.367 46.8454 19.38 45.8055C20.2449 44.9165 20.7033 43.0573 20.5826 41.0995L21.9511 40.9009L22.4449 44.415L45.099 41.6873L43.2506 23.6599ZM29.468 14.1163C29.4047 14.2608 29.3053 14.3552 29.4546 14.825L29.4637 14.8519L29.4874 14.9125L29.5496 15.0531C29.8186 15.6028 30.1138 16.1215 30.6073 16.3861C30.735 16.3647 30.867 16.3502 31.0039 16.3432C31.4672 16.3228 31.7598 16.3963 31.9456 16.4961C31.9622 16.4038 31.966 16.2685 31.9557 16.0694C31.9198 15.373 32.0937 14.1888 30.7554 13.5655C30.2502 13.3309 29.5416 13.4034 29.3053 13.696C29.3482 13.7013 29.387 13.7105 29.417 13.7206C29.774 13.8457 29.5319 13.9687 29.468 14.1163ZM33.219 20.6133C33.0434 20.5166 32.2231 20.5547 31.6465 20.6235C30.5481 20.7529 29.3623 21.1341 29.1024 21.3369C28.6299 21.7021 28.8448 22.3387 29.1937 22.6002C30.1723 23.3314 31.0302 23.8215 31.936 23.7023C32.4921 23.6294 32.9822 22.7489 33.3295 21.95C33.5674 21.3997 33.5674 20.806 33.219 20.6133ZM23.4945 14.9785C23.8042 14.6843 21.9515 14.2978 20.5139 15.2781C19.4536 16.0012 19.4198 17.5516 20.4349 18.4304C20.5365 18.5174 20.6202 18.5791 20.6985 18.6296C20.9949 18.49 21.3326 18.3489 21.7213 18.2227C22.3779 18.0095 22.9238 17.8995 23.3726 17.8409C23.5873 17.6011 23.837 17.1785 23.7748 16.4134C23.6899 15.3758 22.9034 15.5406 23.4945 14.9785Z" fill="#632CA6"/>
</svg>
