<svg width="62" height="34" viewBox="0 0 62 34" fill="none" xmlns="http://www.w3.org/2000/svg">
<rect x="1.19775" y="1.92383" width="59.2485" height="30.9299" rx="2" stroke="black" stroke-width="2"/>
<path d="M14.1726 14.1022H11.1621V12.3877H19.3161V14.1022H16.3056V21.9997H14.1726V14.1022Z" fill="black"/>
<path d="M22.6084 22.1077C21.8794 22.1077 21.2404 21.9637 20.6914 21.6757C20.1514 21.3877 19.7329 20.9737 19.4359 20.4337C19.1479 19.8937 19.0039 19.2637 19.0039 18.5437C19.0039 17.8237 19.1479 17.1937 19.4359 16.6537C19.7329 16.1137 20.1514 15.6997 20.6914 15.4117C21.2404 15.1237 21.8794 14.9797 22.6084 14.9797C23.3284 14.9797 23.9584 15.1237 24.4984 15.4117C25.0384 15.6997 25.4524 16.1137 25.7404 16.6537C26.0374 17.1937 26.1859 17.8237 26.1859 18.5437C26.1859 19.2637 26.0374 19.8937 25.7404 20.4337C25.4524 20.9737 25.0384 21.3877 24.4984 21.6757C23.9584 21.9637 23.3284 22.1077 22.6084 22.1077ZM22.6084 20.5552C23.1124 20.5552 23.4949 20.3887 23.7559 20.0557C24.0259 19.7227 24.1609 19.2187 24.1609 18.5437C24.1609 17.8777 24.0259 17.3782 23.7559 17.0452C23.4949 16.7032 23.1124 16.5322 22.6084 16.5322C22.0954 16.5322 21.7039 16.7032 21.4339 17.0452C21.1639 17.3782 21.0289 17.8777 21.0289 18.5437C21.0289 19.8847 21.5554 20.5552 22.6084 20.5552Z" fill="black"/>
<path d="M34.1579 15.1552V21.9997H32.1734V21.0007C31.9574 21.3607 31.6739 21.6352 31.3229 21.8242C30.9719 22.0132 30.5759 22.1077 30.1349 22.1077C29.2799 22.1077 28.6409 21.8692 28.2179 21.3922C27.7949 20.9152 27.5834 20.1952 27.5834 19.2322V15.1552H29.6219V19.2727C29.6219 20.1007 29.9774 20.5147 30.6884 20.5147C31.1114 20.5147 31.4534 20.3707 31.7144 20.0827C31.9754 19.7947 32.1059 19.4167 32.1059 18.9487V15.1552H34.1579Z" fill="black"/>
<path d="M39.9284 14.9932C40.2164 14.9932 40.4594 15.0382 40.6574 15.1282L40.6439 16.9912C40.3109 16.8382 39.9779 16.7617 39.6449 16.7617C39.1049 16.7617 38.6909 16.9102 38.4029 17.2072C38.1239 17.4952 37.9844 17.9002 37.9844 18.4222V21.9997H35.9459V17.1127C35.9459 16.3837 35.9099 15.7312 35.8379 15.1552H37.7549L37.8899 16.3297C38.0609 15.8977 38.3264 15.5692 38.6864 15.3442C39.0554 15.1102 39.4694 14.9932 39.9284 14.9932Z" fill="black"/>
<path d="M44.1711 22.1077C42.8751 22.1077 41.8536 21.8287 41.1066 21.2707L41.6466 19.8532C42.0066 20.1142 42.4071 20.3167 42.8481 20.4607C43.2891 20.5957 43.7391 20.6632 44.1981 20.6632C44.5491 20.6632 44.8191 20.6092 45.0081 20.5012C45.1971 20.3932 45.2916 20.2357 45.2916 20.0287C45.2916 19.8577 45.2241 19.7227 45.0891 19.6237C44.9541 19.5247 44.7156 19.4392 44.3736 19.3672L43.2531 19.1107C42.5961 18.9667 42.1101 18.7372 41.7951 18.4222C41.4891 18.1072 41.3361 17.6887 41.3361 17.1667C41.3361 16.7437 41.4576 16.3657 41.7006 16.0327C41.9526 15.6997 42.2991 15.4432 42.7401 15.2632C43.1811 15.0742 43.6896 14.9797 44.2656 14.9797C44.7516 14.9797 45.2286 15.0562 45.6966 15.2092C46.1646 15.3532 46.5831 15.5602 46.9521 15.8302L46.3851 17.1937C46.0341 16.9507 45.6741 16.7662 45.3051 16.6402C44.9451 16.5142 44.5941 16.4512 44.2521 16.4512C43.9191 16.4512 43.6581 16.5097 43.4691 16.6267C43.2801 16.7437 43.1856 16.9057 43.1856 17.1127C43.1856 17.2657 43.2396 17.3917 43.3476 17.4907C43.4646 17.5807 43.6671 17.6572 43.9551 17.7202L45.1026 17.9767C45.8046 18.1387 46.3131 18.3817 46.6281 18.7057C46.9431 19.0297 47.1006 19.4617 47.1006 20.0017C47.1006 20.6497 46.8396 21.1627 46.3176 21.5407C45.7956 21.9187 45.0801 22.1077 44.1711 22.1077Z" fill="black"/>
</svg>
