<svg xmlns="http://www.w3.org/2000/svg"
    preserveAspectRatio="xMidYMin slice"
    viewBox="140 235 515 73">
<g>
    <g>
        <path class="rd-with-pd-logo__rd-text" d="M645.7,244.4l-29.3,27.4l29.5,33.1h-13.1L609.5,278l-2,1.9v25.1h-9.8v-60.5h9.8v24.2l25.2-24.2H645.7z
             M540.6,254.3c-5.5,6-8.2,12.9-8.2,20.6c0,8.6,3.3,15.9,9.8,22c6.6,6,14.5,9.1,23.7,9.1c6.2,0,12-1.5,17.6-4.4v-11
            c-1.6,1.3-3.1,2.3-4.6,3.2c-1.4,0.9-2.8,1.6-4.2,2.1c-2.4,1-5.3,1.6-8.8,1.6c-6.7,0-12.3-2.2-16.9-6.5c-4.6-4.4-6.9-9.7-6.9-16.1
            c0-6.4,2.3-11.9,6.9-16.3c4.6-4.5,10.2-6.7,16.8-6.7c6,0,11.9,2.2,17.5,6.6v-10.8c-5.4-3-11.1-4.4-16.9-4.4
            C556,243.2,547.3,246.9,540.6,254.3L540.6,254.3z M522.8,304.9H487v-60.5h35.8v8.6h-26v14.5H522v8.6h-25.2v20.2h26V304.9z
             M464.7,252.2c-3.3-2.8-7-4.8-11-6c-3.8-1.2-8.9-1.8-15.4-1.8h-13.6v60.5H438c6.6,0,11.7-0.6,15.2-1.7c3.8-1.1,7.5-3.1,11-6
            c7-5.7,10.5-13.3,10.5-22.6C474.7,265.4,471.4,257.9,464.7,252.2z M449.7,295c2.9-0.9,5.6-2.4,7.9-4.4c4.8-4.1,7.2-9.4,7.2-16
            c0-6.6-2.4-12-7.1-16.2c-4.3-3.7-10.6-5.5-18.9-5.5h-4.4v43.4h4.4C443.2,296.3,446.8,295.9,449.7,295z M323.9,292.2
            c1.8-2.3,2.7-6.1,2.7-11.4v-36.5h9.8v39c0,6.4-2.1,11.6-6.4,15.8c-4.8,4.6-10.7,6.9-17.6,6.9c-7,0-12.8-2.3-17.6-6.9
            c-4.3-4.1-6.4-9.4-6.4-15.8v-39h9.8v36.5c0,5.2,0.9,9,2.7,11.4c2.7,3.5,6.5,5.2,11.5,5.2C317.4,297.5,321.2,295.7,323.9,292.2z
             M247.5,272.2V253h3.5c9,0,13.5,3.1,13.5,9.3c0,6.6-4.6,9.9-13.9,9.9H247.5z M270,273.2c2.6-3.1,4-6.8,4-11.1
            c0-5.5-2.1-9.9-6.3-13.3c-3.8-3-10-4.5-18.6-4.5h-11.5v60.6h9.8v-24.8h1.8l18.5,24.8h12l-20.1-25.8
            C263.9,278.2,267.4,276.3,270,273.2z M399.3,286.4L352,240.2v64.7h9.8v-42.4l47.3,46.1v-64.2h-9.8V286.4z"/>
        <path class="rd-with-pd-logo__chevron" d="M162.1,268.6h43.3l4,6.1l-4,6.1h-43.3l4-6.1L162.1,268.6z M145.9,305.2h43.3l8.1-12.2H154L145.9,305.2z
             M197.3,256.5l-8.1-12.2h-43.3l8.1,12.2L197.3,256.5z"/>
    </g>
</g>
<style>
.rd-with-pd-logo__rd-text {
    fill-rule:evenodd;
    clip-rule:evenodd;
    fill: var(--font-color)
}

.rd-with-pd-logo__chevron {
    fill-rule:evenodd;
    clip-rule:evenodd;
    fill: var(--brand-color);
}
</style>
</svg>