<?xml version="1.0" encoding="utf-8"?>
<!-- Generator: Adobe Illustrator 24.0.1, SVG Export Plug-In . SVG Version: 6.00 Build 0)  -->
<svg version="1.1" id="Layer_1" xmlns="http://www.w3.org/2000/svg" xmlns:xlink="http://www.w3.org/1999/xlink" x="0px" y="0px"
	 viewBox="0 0 792 612" style="enable-background:new 0 0 792 612;" xml:space="preserve">
<style type="text/css">
	.st0{fill-rule:evenodd;clip-rule:evenodd;fill:#FFFFFF;}
	.st1{fill-rule:evenodd;clip-rule:evenodd;fill:#EF433D;}
	.st2{fill:#FFFFFF;}
</style>
<g>
	<g>
		<path class="st0" d="M645.7,244.4l-29.3,27.4l29.5,33.1h-13.1L609.5,278l-2,1.9v25.1h-9.8v-60.5h9.8v24.2l25.2-24.2H645.7z
			 M540.6,254.3c-5.5,6-8.2,12.9-8.2,20.6c0,8.6,3.3,15.9,9.8,22c6.6,6,14.5,9.1,23.7,9.1c6.2,0,12-1.5,17.6-4.4v-11
			c-1.6,1.3-3.1,2.3-4.6,3.2c-1.4,0.9-2.8,1.6-4.2,2.1c-2.4,1-5.3,1.6-8.8,1.6c-6.7,0-12.3-2.2-16.9-6.5c-4.6-4.4-6.9-9.7-6.9-16.1
			c0-6.4,2.3-11.9,6.9-16.3c4.6-4.5,10.2-6.7,16.8-6.7c6,0,11.9,2.2,17.5,6.6v-10.8c-5.4-3-11.1-4.4-16.9-4.4
			C556,243.2,547.3,246.9,540.6,254.3L540.6,254.3z M522.8,304.9H487v-60.5h35.8v8.6h-26v14.5H522v8.6h-25.2v20.2h26V304.9z
			 M464.7,252.2c-3.3-2.8-7-4.8-11-6c-3.8-1.2-8.9-1.8-15.4-1.8h-13.6v60.5H438c6.6,0,11.7-0.6,15.2-1.7c3.8-1.1,7.5-3.1,11-6
			c7-5.7,10.5-13.3,10.5-22.6C474.7,265.4,471.4,257.9,464.7,252.2z M449.7,295c2.9-0.9,5.6-2.4,7.9-4.4c4.8-4.1,7.2-9.4,7.2-16
			c0-6.6-2.4-12-7.1-16.2c-4.3-3.7-10.6-5.5-18.9-5.5h-4.4v43.4h4.4C443.2,296.3,446.8,295.9,449.7,295z M323.9,292.2
			c1.8-2.3,2.7-6.1,2.7-11.4v-36.5h9.8v39c0,6.4-2.1,11.6-6.4,15.8c-4.8,4.6-10.7,6.9-17.6,6.9c-7,0-12.8-2.3-17.6-6.9
			c-4.3-4.1-6.4-9.4-6.4-15.8v-39h9.8v36.5c0,5.2,0.9,9,2.7,11.4c2.7,3.5,6.5,5.2,11.5,5.2C317.4,297.5,321.2,295.7,323.9,292.2z
			 M247.5,272.2V253h3.5c9,0,13.5,3.1,13.5,9.3c0,6.6-4.6,9.9-13.9,9.9H247.5z M270,273.2c2.6-3.1,4-6.8,4-11.1
			c0-5.5-2.1-9.9-6.3-13.3c-3.8-3-10-4.5-18.6-4.5h-11.5v60.6h9.8v-24.8h1.8l18.5,24.8h12l-20.1-25.8
			C263.9,278.2,267.4,276.3,270,273.2z M399.3,286.4L352,240.2v64.7h9.8v-42.4l47.3,46.1v-64.2h-9.8V286.4z"/>
		<path class="st1" d="M162.1,268.6h43.3l4,6.1l-4,6.1h-43.3l4-6.1L162.1,268.6z M145.9,305.2h43.3l8.1-12.2H154L145.9,305.2z
			 M197.3,256.5l-8.1-12.2h-43.3l8.1,12.2L197.3,256.5z"/>
	</g>
	<g>
		<g>
			<path class="st2" d="M640.6,335.8l-5,14.2c-0.9,2.6-1.4,4-2.2,6.5h-0.1c-0.7-2.1-1.3-3.8-2.1-6.3l-4.9-14.4h-5.8l10.1,26.3
				c-0.2,0.6-0.5,1.2-0.7,1.8c-0.8,2.1-2.8,3.4-5.1,3.4h-2.5v4.5h2.6c4.2,0,7.9-2.5,9.5-6.4c3.2-8,8.7-21.7,11.8-29.6H640.6z"/>
			<path class="st2" d="M500.8,357c0,9.5-4.4,14.7-13.2,14.7c-6.6,0-10.5-3.5-11.9-8.7h5.3c0.9,2.4,2.8,4.6,6.7,4.6
				c6,0,8.2-3.8,8.2-10.9c-0.1,0-0.1-0.1-0.1-0.1c-1.3,2.3-4.2,4.3-8.8,4.3c-7.4,0-12.1-5.4-12.1-12.9c0-7.8,5.1-13.1,12.2-13.1
				c4.6,0,7.3,2,8.8,4.1c-0.1-0.6-0.1-1.1-0.1-1.7v-1.7h5V357z M480.3,348c0,5.1,2.9,8.8,7.8,8.8c4.4,0,7.8-3.1,7.8-8.9
				c0-5.2-3-8.6-7.8-8.6C483.2,339.2,480.3,342.7,480.3,348z"/>
			<path class="st2" d="M509.1,350.3c0.2,4.6,3.2,8.3,8.3,8.3c3.6,0,5.4-1.7,6.7-4h5.1c-1.5,4.8-5.7,8.2-12,8.2
				c-8.1,0-13.2-5.5-13.2-13.7c0-8.2,5.3-14.1,13.2-14.1c8.6,0,12.5,6.5,12.5,13.6v1.7H509.1z M524.4,346.3
				c-0.5-4.2-3.1-7.1-7.4-7.1c-4.1,0-7.3,2.7-7.8,7.1H524.4z"/>
			<path class="st2" d="M537.8,335.8v3.4c0.9-2.5,3.4-4,6.4-4c0.7,0,1,0.1,1.3,0.1v4.6c-0.5-0.1-1.2-0.2-1.8-0.2
				c-4.8,0-5.7,3.5-5.7,8.8v13.7H533v-21.6c0-1.7,0-3.1-0.1-4.7H537.8z"/>
			<path class="st2" d="M597.6,358.4c-1.4,2.3-3.9,4.4-8.4,4.4c-6.1,0-9.1-3.8-9.1-10.6v-16.4h5.1v14.5c0,5.2,1.7,8.3,5.8,8.3
				c5.4,0,6.4-4.9,6.4-10.7v-12.1h5.1v22.4c0,1.4,0,2.7,0.1,4h-4.9V358.4z"/>
			<path class="st2" d="M613.8,335.8h4.9v3.9h-4.9v15.8c0,2.5,1.3,3.3,3.2,3.3c0.4,0,1-0.1,1.3-0.1v3.8c-0.8,0.1-1.3,0.2-2,0.2
				c-4.7,0-7.6-1.6-7.6-6.8v-16.1h-4v-3.9h4v-7.1h5.1V335.8z"/>
			<rect x="424.2" y="352.6" class="st2" width="5.3" height="9.6"/>
			<path class="st2" d="M444,328c-2.8-1.5-4.8-1.8-9.4-1.8h-10.4V348h5.3h0.7h4.4c4.1,0,7.2-0.3,9.9-2.1c3-2,4.5-5.2,4.5-9
				C449,332.9,447.1,329.6,444,328z M435.8,343.4h-6.3v-12.5l5.9-0.1c5.4-0.1,8.1,1.9,8.1,6.2C443.6,341.7,440.2,343.4,435.8,343.4z
				"/>
			<path class="st2" d="M548.6,326.2h8.8c13.1,0.1,19.5,6.5,19.5,18c0,9.8-5,17.7-18.7,17.9h-9.6V326.2z M553.9,357.6h3.1
				c9.5,0,14.5-3.6,14.5-13.4c0-8.6-5-13.5-14-13.5c-1.8,0-3.6,0.1-3.6,0.1V357.6z"/>
			<path class="st2" d="M467.4,362.1c-0.2-1.1-0.2-1.7-0.3-3.6c-2,2.9-4.7,4.1-8.9,4.1c-5.5,0-9.5-2.7-9.5-7.6
				c0-5.7,5.4-7.5,12.4-8.5c1.8-0.3,3.7-0.5,5.4-0.6c0-5.2-2.9-6.8-5.9-6.8s-5.2,2.1-5.2,4.9h-4.9c0-5.4,4.2-8.9,10.3-8.9
				c6,0,10.7,2.5,10.7,12.1v5.1c0,4.3,0.2,7.4,0.7,9.8H467.4z M454.2,354.9c0,2.5,2,4,5.2,4c4.7,0,7.2-2.9,7.2-8
				c0-0.7,0-1.1,0.1-1.4C458.1,350.4,454.2,351.3,454.2,354.9z"/>
		</g>
		<g>
			<path class="st2" d="M388.6,337h2.2v3.4c0,0.8,0,1.4,0,2.3c0.7-0.9,1.9-1.8,3.7-1.8c3.3,0,5.4,2.6,5.4,6.1c0,3.6-2.2,6.1-5.4,6.1
				c-2,0-3.2-0.9-3.9-1.9v1.6h-2.1V337z M390.7,346.9c0,2.5,1.3,4.2,3.4,4.2c2.1,0,3.4-1.7,3.4-4.2c0-2.5-1.3-4.2-3.4-4.2
				C392,342.7,390.7,344.5,390.7,346.9z"/>
			<path class="st2" d="M405.8,356.6h-2.3c0.5-1.3,1.2-2.7,1.7-3.9l-4.4-11.5h2.5l2.1,6.3c0.4,1.1,0.6,1.8,0.9,2.8h0
				c0.4-1.1,0.6-1.7,1-2.8l2.2-6.2h2.4C410,346.3,407.7,351.6,405.8,356.6z"/>
		</g>
	</g>
</g>
</svg>
