<svg viewBox="0 0 937 150" fill="none" xmlns="http://www.w3.org/2000/svg">
<path fill-rule="evenodd" clip-rule="evenodd" d="M59.428 52.8346L50.0832 38H0L9.34483 52.8308L59.428 52.8346ZM4.39717e-05 112.154H50.0832L59.4281 97.3232H9.34487L4.39717e-05 112.154ZM18.6897 67.6619H68.7729L73.4434 75.0792L68.7729 82.4965H18.6897L23.3602 75.0792L18.6897 67.6619Z" fill="#F73F39"/>
<path d="M662.249 79.3838H655.583V91.5023H662.249V79.3838Z" fill="black"/>
<path d="M680.686 48.222C677.108 46.3176 674.627 46.0002 668.77 46.0002H655.583V73.5844H668.712C673.934 73.5844 677.83 73.267 681.263 70.9875C685.014 68.5061 686.947 64.38 686.947 59.6192C686.947 54.4544 684.553 50.3283 680.686 48.222ZM670.241 67.8136H662.249V51.9152L669.78 51.8575C676.647 51.771 680.08 54.1947 680.08 59.6769C680.08 65.563 675.839 67.8136 670.241 67.8136Z" fill="black"/>
<path d="M929.838 58.0896L923.49 76.0943C922.336 79.326 921.759 81.1726 920.691 84.2888H920.576C919.739 81.6054 918.96 79.4414 917.892 76.2675L911.746 58.0608H904.36L917.142 91.4733C916.853 92.1947 916.565 92.9449 916.247 93.7239C915.18 96.3208 912.641 98.0231 909.842 98.0231H906.668V103.707H909.928C915.209 103.707 919.97 100.476 921.932 95.5706C926 85.3852 932.925 68.0442 936.878 58.0896H929.838Z" fill="black"/>
<path d="M752.59 85.0677C752.59 97.1573 747.05 103.707 735.855 103.707C727.516 103.707 722.495 99.3214 720.706 92.7139H727.458C728.612 95.7724 731.036 98.5135 735.97 98.5135C743.616 98.5135 746.328 93.7526 746.328 84.6926C746.271 84.6926 746.271 84.6348 746.213 84.6348C744.568 87.4914 740.875 90.0305 735.018 90.0305C725.612 90.0305 719.639 83.221 719.639 73.6705C719.639 63.7448 726.131 57.0796 735.104 57.0796C740.904 57.0796 744.395 59.561 746.3 62.3021C746.242 61.6096 746.242 60.9171 746.242 60.1958V58.0895H752.59V85.0677V85.0677ZM726.621 73.6127C726.621 80.1048 730.257 84.7503 736.489 84.7503C742.087 84.7503 746.415 80.7973 746.415 73.4396C746.415 66.8898 742.606 62.5041 736.489 62.5041C730.372 62.5041 726.621 66.861 726.621 73.6127Z" fill="black"/>
<path d="M763.121 76.4694C763.381 82.3267 767.132 86.9722 773.624 86.9722C778.212 86.9722 780.434 84.8081 782.136 81.9516H788.57C786.666 87.982 781.386 92.3101 773.364 92.3101C763.064 92.3101 756.629 85.3852 756.629 74.9402C756.629 64.4951 763.294 57.1375 773.364 57.1375C784.242 57.1375 789.263 65.4185 789.263 74.392V76.4983L763.121 76.4694ZM782.569 71.3912C781.992 66.1109 778.673 62.36 773.22 62.36C767.998 62.36 763.987 65.7936 763.352 71.3912H782.569Z" fill="black"/>
<path d="M799.564 58.0894V62.3598C800.631 59.2436 803.892 57.2527 807.643 57.2527C808.191 57.2527 808.739 57.2815 809.287 57.3681V63.2254C808.537 63.0811 807.816 63.0234 807.066 63.0234C801.006 63.0234 799.881 67.4669 799.881 74.1609V91.4731H793.447V64.0622C793.447 61.9558 793.447 60.1092 793.389 58.0894H799.564Z" fill="black"/>
<path d="M875.362 86.7125C873.631 89.569 870.399 92.3101 864.744 92.3101C856.982 92.3101 853.173 87.5492 853.173 78.8931V58.0896H859.579V76.4694C859.579 83.0192 861.743 86.9721 866.965 86.9721C873.833 86.9721 875.044 80.7397 875.044 73.4109V58.0896H881.479V86.4528C881.479 88.184 881.479 89.8286 881.536 91.4733H875.362V86.7125Z" fill="black"/>
<path d="M895.935 58.0888H902.167V63.0516H895.935V83.105C895.935 86.2789 897.522 87.231 900.003 87.231C900.522 87.231 901.071 87.1733 901.59 87.1156V91.8765C900.782 92.0207 899.945 92.1073 899.109 92.1362C893.194 92.1362 889.443 90.1741 889.443 83.4801V63.0516H884.393V58.0888H889.414V49.0576H895.935V58.0888Z" fill="black"/>
<path d="M813.211 46H824.349C841.026 46.1154 849.047 54.2522 849.105 68.8521C849.163 81.288 842.728 91.358 825.445 91.5023H813.211V46ZM819.963 85.8181H823.858C835.948 85.8181 842.267 81.2015 842.267 68.8233C842.238 57.9454 835.977 51.713 824.493 51.713C822.271 51.713 819.963 51.7707 819.963 51.7707V85.8181V85.8181Z" fill="black"/>
<path d="M710.319 91.502C710.117 90.1747 710.117 89.338 710.002 86.9143C707.462 90.5498 704.087 92.1368 698.749 92.1368C691.737 92.1368 686.659 88.7032 686.659 82.4708C686.659 75.2862 693.526 72.9202 702.442 71.7084C704.664 71.391 707.145 71.1313 709.309 70.9582C709.309 64.3507 705.645 62.3598 701.807 62.3598C697.97 62.3598 695.171 65.072 695.171 68.5633H688.938C688.938 61.7827 694.276 57.2527 701.923 57.2527C709.569 57.2527 715.513 60.4266 715.513 72.6606V79.1526C715.513 84.5771 715.772 88.5012 716.349 91.5597H710.319V91.502ZM693.584 82.3842C693.584 85.5004 696.123 87.4625 700.191 87.4625C706.164 87.4625 709.367 83.8269 709.367 77.3348C709.338 76.7289 709.367 76.1518 709.424 75.5459C698.547 76.6712 693.584 77.7388 693.584 82.3842Z" fill="black"/>
<path d="M622.895 76.3315C622.895 78.0889 622.539 79.6003 621.826 80.8656C621.114 82.131 620.171 83.1034 618.999 83.7829C617.826 84.439 616.551 84.7671 615.172 84.7671C612.804 84.7671 611 83.7595 609.758 81.7443V84.4156H606V57H609.758V70.9187C611 68.9035 612.804 67.8959 615.172 67.8959C616.551 67.8959 617.826 68.2357 618.999 68.9152C620.171 69.5713 621.114 70.5321 621.826 71.7974C622.539 73.0393 622.895 74.5507 622.895 76.3315ZM619.033 76.3315C619.033 74.7147 618.562 73.4611 617.62 72.5706C616.677 71.6568 615.562 71.1999 614.275 71.1999C613.563 71.1999 612.861 71.399 612.172 71.7974C611.482 72.1957 610.908 72.7815 610.448 73.5548C609.988 74.3046 609.758 75.2302 609.758 76.3315C609.758 77.4328 609.988 78.3701 610.448 79.1434C610.908 79.8932 611.482 80.4673 612.172 80.8656C612.861 81.264 613.563 81.4631 614.275 81.4631C615.562 81.4631 616.677 81.0179 617.62 80.1275C618.562 79.2137 619.033 77.9483 619.033 76.3315Z" fill="black"/>
<path d="M639.936 68.2474L629.592 92.1482H625.627L629.799 82.5176L623.386 68.2474H627.661L631.834 78.7567L635.937 68.2474H639.936Z" fill="black"/>
<path d="M108.112 38.2H130.576C135.915 38.2 140.525 39.136 144.408 41.008C148.36 42.88 151.411 45.5147 153.56 48.912C155.709 52.3093 156.784 56.296 156.784 60.872C156.784 66.1413 155.328 70.648 152.416 74.392C149.573 78.0667 145.621 80.632 140.56 82.088L161.152 111H146.28L127.976 83.44H120.384V111H108.112V38.2ZM130.056 48.912H120.384V73.248H130.056C134.285 73.248 137.683 72.208 140.248 70.128C142.813 67.9787 144.096 64.9627 144.096 61.08C144.096 57.1973 142.813 54.216 140.248 52.136C137.683 49.9867 134.285 48.912 130.056 48.912ZM169.342 38.2H181.614V86.56C181.614 90.9973 182.827 94.6027 185.254 97.376C187.681 100.149 191.217 101.536 195.862 101.536C200.577 101.536 204.113 100.149 206.47 97.376C208.897 94.6027 210.11 90.9973 210.11 86.56V38.2H222.382V87.08C222.382 92.4187 221.238 97.0293 218.95 100.912C216.731 104.725 213.611 107.672 209.59 109.752C205.638 111.832 201.062 112.872 195.862 112.872C190.662 112.872 186.051 111.832 182.03 109.752C178.078 107.672 174.958 104.725 172.67 100.912C170.451 97.0293 169.342 92.4187 169.342 87.08V38.2ZM291.256 38.2H303.32V114.64L250.176 62.12V111H238.112V34.56L291.256 87.08V38.2ZM342.968 111H319.464V38.2H342.968C350.386 38.2 356.904 39.7253 362.52 42.776C368.136 45.7573 372.504 49.9867 375.624 55.464C378.813 60.872 380.408 67.2507 380.408 74.6C380.408 81.88 378.813 88.2587 375.624 93.736C372.504 99.2133 368.136 103.477 362.52 106.528C356.904 109.509 350.386 111 342.968 111ZM342.656 49.744H332.048V99.456H342.656C347.44 99.456 351.738 98.52 355.552 96.648C359.365 94.776 362.346 92.0027 364.496 88.328C366.714 84.6533 367.824 80.0773 367.824 74.6C367.824 69.1227 366.714 64.5467 364.496 60.872C362.346 57.1973 359.365 54.424 355.552 52.552C351.738 50.68 347.44 49.744 342.656 49.744ZM392.385 38.2H436.689V49.016H404.449V66.696H434.609V77.304H404.449V100.184H436.689V111H392.385V38.2ZM460.952 74.6C460.952 79.7307 462.096 84.2373 464.384 88.12C466.672 92.0027 469.688 95.0187 473.432 97.168C477.245 99.248 481.37 100.288 485.808 100.288C490.938 100.288 495.376 99.3173 499.12 97.376C502.933 95.3653 506.088 92.8693 508.584 89.888V104.552C505.602 107.048 502.309 108.955 498.704 110.272C495.168 111.589 490.73 112.248 485.392 112.248C480.053 112.248 475.096 111.347 470.52 109.544C465.944 107.672 461.922 105.072 458.456 101.744C455.058 98.416 452.389 94.464 450.448 89.888C448.576 85.2427 447.64 80.1467 447.64 74.6C447.64 69.0533 448.576 63.992 450.448 59.416C452.389 54.7707 455.058 50.784 458.456 47.456C461.922 44.128 465.944 41.5627 470.52 39.76C475.096 37.888 480.053 36.952 485.392 36.952C490.73 36.952 495.168 37.6107 498.704 38.928C502.309 40.2453 505.602 42.152 508.584 44.648V59.312C506.088 56.3307 502.933 53.8693 499.12 51.928C495.376 49.9173 490.938 48.912 485.808 48.912C481.37 48.912 477.245 49.9867 473.432 52.136C469.688 54.216 466.672 57.1973 464.384 61.08C462.096 64.8933 460.952 69.4 460.952 74.6ZM523.706 38.2H536.29V68.464L563.33 38.2H578.098L547.418 72.312L579.658 111H564.578L536.29 77.096V111H523.706V38.2Z" fill="black"/>
</svg>
