<svg width="937" height="81" viewBox="0 0 937 81" fill="none" xmlns="http://www.w3.org/2000/svg">
<path fill-rule="evenodd" clip-rule="evenodd" d="M59.428 17.3741L50.0832 2.53955H0L9.34483 17.3704L59.428 17.3741ZM4.39717e-05 76.6936H50.0832L59.4281 61.8628H9.34487L4.39717e-05 76.6936ZM18.6897 32.2015H68.7729L73.4434 39.6187L68.7729 47.036H18.6897L23.3602 39.6187L18.6897 32.2015Z" fill="#F73F39"/>
<path d="M662.249 52.3838H655.583V64.5023H662.249V52.3838Z" fill="black"/>
<path d="M680.686 21.222C677.108 19.3176 674.627 19.0002 668.77 19.0002H655.583V46.5844H668.712C673.934 46.5844 677.83 46.267 681.263 43.9875C685.014 41.5061 686.947 37.38 686.947 32.6192C686.947 27.4544 684.553 23.3283 680.686 21.222ZM670.241 40.8136H662.249V24.9152L669.78 24.8575C676.647 24.771 680.08 27.1947 680.08 32.6769C680.08 38.563 675.839 40.8136 670.241 40.8136Z" fill="black"/>
<path d="M929.838 31.0896L923.49 49.0943C922.336 52.326 921.759 54.1726 920.691 57.2888H920.576C919.739 54.6054 918.96 52.4414 917.892 49.2675L911.746 31.0608H904.36L917.142 64.4733C916.853 65.1947 916.565 65.9449 916.247 66.7239C915.18 69.3208 912.641 71.0231 909.842 71.0231H906.668V76.7073H909.928C915.209 76.7073 919.97 73.4757 921.932 68.5706C926 58.3852 932.925 41.0442 936.878 31.0896H929.838Z" fill="black"/>
<path d="M752.59 58.0677C752.59 70.1573 747.05 76.7071 735.855 76.7071C727.516 76.7071 722.495 72.3214 720.706 65.7139H727.458C728.612 68.7724 731.036 71.5135 735.97 71.5135C743.616 71.5135 746.328 66.7526 746.328 57.6926C746.271 57.6926 746.271 57.6348 746.213 57.6348C744.568 60.4914 740.875 63.0305 735.018 63.0305C725.612 63.0305 719.639 56.221 719.639 46.6705C719.639 36.7448 726.131 30.0796 735.104 30.0796C740.904 30.0796 744.395 32.561 746.3 35.3021C746.242 34.6096 746.242 33.9171 746.242 33.1958V31.0895H752.59V58.0677V58.0677ZM726.621 46.6127C726.621 53.1048 730.257 57.7503 736.489 57.7503C742.087 57.7503 746.415 53.7973 746.415 46.4396C746.415 39.8898 742.606 35.5041 736.489 35.5041C730.372 35.5041 726.621 39.861 726.621 46.6127Z" fill="black"/>
<path d="M763.121 49.4694C763.381 55.3267 767.132 59.9722 773.624 59.9722C778.212 59.9722 780.434 57.8081 782.136 54.9516H788.57C786.666 60.982 781.386 65.3101 773.364 65.3101C763.064 65.3101 756.629 58.3852 756.629 47.9402C756.629 37.4951 763.294 30.1375 773.364 30.1375C784.242 30.1375 789.263 38.4185 789.263 47.392V49.4983L763.121 49.4694ZM782.569 44.3912C781.992 39.1109 778.673 35.36 773.22 35.36C767.998 35.36 763.987 38.7936 763.352 44.3912H782.569Z" fill="black"/>
<path d="M799.564 31.0894V35.3598C800.631 32.2436 803.892 30.2527 807.643 30.2527C808.191 30.2527 808.739 30.2815 809.287 30.3681V36.2254C808.537 36.0811 807.816 36.0234 807.066 36.0234C801.006 36.0234 799.881 40.4669 799.881 47.1609V64.4731H793.447V37.0622C793.447 34.9558 793.447 33.1092 793.389 31.0894H799.564Z" fill="black"/>
<path d="M875.362 59.7125C873.631 62.569 870.399 65.3101 864.744 65.3101C856.982 65.3101 853.173 60.5492 853.173 51.8931V31.0896H859.579V49.4694C859.579 56.0192 861.743 59.9721 866.965 59.9721C873.833 59.9721 875.044 53.7397 875.044 46.4109V31.0896H881.479V59.4528C881.479 61.184 881.479 62.8286 881.536 64.4733H875.362V59.7125Z" fill="black"/>
<path d="M895.935 31.0888H902.167V36.0516H895.935V56.105C895.935 59.2789 897.522 60.231 900.003 60.231C900.522 60.231 901.071 60.1733 901.59 60.1156V64.8765C900.782 65.0207 899.945 65.1073 899.109 65.1362C893.194 65.1362 889.443 63.1741 889.443 56.4801V36.0516H884.393V31.0888H889.414V22.0576H895.935V31.0888Z" fill="black"/>
<path d="M813.211 19H824.349C841.026 19.1154 849.047 27.2522 849.105 41.8521C849.163 54.288 842.728 64.358 825.445 64.5023H813.211V19ZM819.963 58.8181H823.858C835.948 58.8181 842.267 54.2015 842.267 41.8233C842.238 30.9454 835.977 24.713 824.493 24.713C822.271 24.713 819.963 24.7707 819.963 24.7707V58.8181V58.8181Z" fill="black"/>
<path d="M710.319 64.502C710.117 63.1747 710.117 62.338 710.002 59.9143C707.462 63.5498 704.087 65.1368 698.749 65.1368C691.737 65.1368 686.659 61.7032 686.659 55.4708C686.659 48.2862 693.526 45.9202 702.442 44.7084C704.664 44.391 707.145 44.1313 709.309 43.9582C709.309 37.3507 705.645 35.3598 701.807 35.3598C697.97 35.3598 695.171 38.072 695.171 41.5633H688.938C688.938 34.7827 694.276 30.2527 701.923 30.2527C709.569 30.2527 715.513 33.4266 715.513 45.6606V52.1526C715.513 57.5771 715.772 61.5012 716.349 64.5597H710.319V64.502ZM693.584 55.3842C693.584 58.5004 696.123 60.4625 700.191 60.4625C706.164 60.4625 709.367 56.8269 709.367 50.3348C709.338 49.7289 709.367 49.1518 709.424 48.5459C698.547 49.6712 693.584 50.7388 693.584 55.3842Z" fill="black"/>
<path d="M622.895 45.594C622.895 47.3514 622.539 48.8627 621.826 50.1281C621.114 51.3934 620.171 52.3658 618.999 53.0454C617.826 53.7015 616.551 54.0295 615.172 54.0295C612.804 54.0295 611 53.0219 609.758 51.0068V53.678H606V26.2625H609.758V40.1811C611 38.166 612.804 37.1584 615.172 37.1584C616.551 37.1584 617.826 37.4982 618.999 38.1777C620.171 38.8338 621.114 39.7945 621.826 41.0598C622.539 42.3017 622.895 43.8131 622.895 45.594ZM619.033 45.594C619.033 43.9771 618.562 42.7235 617.62 41.8331C616.677 40.9192 615.562 40.4623 614.275 40.4623C613.563 40.4623 612.861 40.6615 612.172 41.0598C611.482 41.4582 610.908 42.044 610.448 42.8173C609.988 43.5671 609.758 44.4926 609.758 45.594C609.758 46.6953 609.988 47.6326 610.448 48.4058C610.908 49.1556 611.482 49.7297 612.172 50.1281C612.861 50.5264 613.563 50.7256 614.275 50.7256C615.562 50.7256 616.677 50.2804 617.62 49.39C618.562 48.4761 619.033 47.2108 619.033 45.594Z" fill="black"/>
<path d="M639.936 37.5099L629.592 61.4106H625.627L629.799 51.78L623.386 37.5099H627.661L631.834 48.0192L635.937 37.5099H639.936Z" fill="black"/>
<path d="M107.904 4.20006H132.448C138.203 4.20006 143.091 5.20539 147.112 7.21606C151.203 9.15739 154.323 11.8614 156.472 15.3281C158.621 18.7947 159.696 22.8507 159.696 27.4961C159.696 32.6267 158.379 37.0641 155.744 40.8081C153.109 44.4827 149.296 47.1521 144.304 48.8161L164.064 77.0001H146.28L129.328 50.5841H122.88V77.0001H107.904V4.20006ZM131.512 17.0961H122.88V38.7281H131.512C135.395 38.7281 138.48 37.7921 140.768 35.9201C143.056 33.9787 144.2 31.3094 144.2 27.9121C144.2 24.4454 143.056 21.7761 140.768 19.9041C138.48 18.0321 135.395 17.0961 131.512 17.0961Z" fill="black"/>
<path d="M171.876 4.20006H186.748V52.2481C186.748 56.2694 187.858 59.5627 190.076 62.1281C192.295 64.6241 195.519 65.8721 199.748 65.8721C204.047 65.8721 207.271 64.6241 209.42 62.1281C211.639 59.5627 212.748 56.2694 212.748 52.2481V4.20006H227.724V53.0801C227.724 58.7654 226.511 63.5841 224.084 67.5361C221.658 71.4881 218.33 74.4694 214.1 76.4801C209.871 78.4907 205.087 79.4961 199.748 79.4961C194.41 79.4961 189.626 78.4907 185.396 76.4801C181.236 74.4694 177.943 71.4881 175.516 67.5361C173.09 63.5841 171.876 58.7654 171.876 53.0801V4.20006Z" fill="black"/>
<path d="M294.569 4.20006H309.025V80.6401L257.441 32.0721V77.0001H242.881V0.560059L294.569 49.1281V4.20006Z" fill="black"/>
<path d="M349.492 77.0001H324.74V4.20006H349.492C357.188 4.20006 363.879 5.69072 369.564 8.67206C375.319 11.6534 379.791 15.8827 382.98 21.3601C386.169 26.7681 387.764 33.1814 387.764 40.6001C387.764 47.9494 386.169 54.3627 382.98 59.8401C379.791 65.3174 375.319 69.5467 369.564 72.5281C363.879 75.5094 357.188 77.0001 349.492 77.0001ZM349.076 17.8241H340.132V63.3761H349.076C353.375 63.3761 357.257 62.6134 360.724 61.0881C364.26 59.4934 367.068 57.0321 369.148 53.7041C371.297 50.3067 372.372 45.9387 372.372 40.6001C372.372 35.2614 371.297 30.9281 369.148 27.6001C367.068 24.2027 364.26 21.7414 360.724 20.2161C357.257 18.6214 353.375 17.8241 349.076 17.8241Z" fill="black"/>
<path d="M399.287 4.20006H445.671V16.8881H413.847V32.1761H443.591V44.5521H413.847V64.3121H445.671V77.0001H399.287V4.20006Z" fill="black"/>
<path d="M472.39 40.6001C472.39 45.3841 473.465 49.5441 475.614 53.0801C477.763 56.6161 480.606 59.3547 484.142 61.2961C487.678 63.1681 491.526 64.1041 495.686 64.1041C500.817 64.1041 505.185 63.1334 508.79 61.1921C512.465 59.2507 515.515 56.8934 517.942 54.1201V70.9681C514.961 73.3254 511.737 75.1627 508.27 76.4801C504.803 77.7974 500.401 78.4561 495.062 78.4561C489.446 78.4561 484.246 77.5547 479.462 75.7521C474.747 73.8801 470.657 71.2801 467.19 67.9521C463.723 64.6241 461.019 60.6374 459.078 55.9921C457.137 51.3467 456.166 46.2161 456.166 40.6001C456.166 34.9841 457.137 29.8534 459.078 25.2081C461.019 20.5627 463.723 16.5761 467.19 13.2481C470.657 9.92006 474.747 7.35472 479.462 5.55206C484.246 3.68006 489.446 2.74406 495.062 2.74406C500.401 2.74406 504.803 3.40272 508.27 4.72005C511.737 5.96806 514.961 7.80539 517.942 10.2321V27.0801C515.515 24.2374 512.465 21.8801 508.79 20.0081C505.185 18.0667 500.817 17.0961 495.686 17.0961C491.526 17.0961 487.678 18.0667 484.142 20.0081C480.606 21.8801 477.763 24.5841 475.614 28.1201C473.465 31.5867 472.39 35.7467 472.39 40.6001Z" fill="black"/>
<path d="M532.638 4.20006H548.03V33.7361L573.926 4.20006H591.71L561.55 38.3121L593.166 77.0001H575.07L548.03 44.0321V77.0001H532.638V4.20006Z" fill="black"/>
</svg>
